<?xml version="1.0" standalone="no"?>
<!DOCTYPE svg PUBLIC "-//W3C//DTD SVG 20010904//EN"
 "http://www.w3.org/TR/2001/REC-SVG-20010904/DTD/svg10.dtd">
<svg version="1.0" xmlns="http://www.w3.org/2000/svg"
 width="500.000000pt" height="500.000000pt" viewBox="0 0 500.000000 500.000000"
 preserveAspectRatio="xMidYMid meet">
<metadata>
Created by potrace 1.11, written by Peter Selinger 2001-2013
</metadata>
<g transform="translate(0.000000,500.000000) scale(0.100000,-0.100000)"
fill="#000000" stroke="none">
<path d="M0 2500 l0 -2500 2500 0 2500 0 0 2500 0 2500 -2500 0 -2500 0 0
-2500z m1672 902 c109 -30 180 -66 243 -124 96 -88 141 -192 152 -353 15 -237
-70 -407 -249 -494 l-78 -38 41 -18 c55 -25 163 -144 220 -241 25 -43 110
-204 188 -356 l142 -278 -143 0 -143 0 -130 257 c-165 325 -203 390 -265 452
-82 82 -126 94 -367 99 l-203 4 0 -406 0 -406 -130 0 -130 0 0 966 0 966 388
-4 c356 -4 393 -6 464 -26z m1858 4 c201 -38 379 -114 483 -207 188 -168 278
-437 264 -789 -22 -527 -244 -791 -747 -886 -65 -12 -177 -17 -477 -21 l-393
-5 0 967 0 967 393 -5 c300 -4 412 -9 477 -21z"/>
<path d="M1080 2870 l0 -352 228 4 c267 5 311 16 392 97 130 130 117 419 -23
525 -80 61 -121 70 -369 74 l-228 4 0 -352z"/>
<path d="M2920 2464 l0 -756 253 5 c185 4 272 9 326 22 329 74 479 276 498
671 20 410 -117 667 -405 764 -107 35 -241 50 -464 50 l-208 0 0 -756z"/>
</g>
</svg>
